# xmcd
#
# Track frame offsets: 
#        150
#        23210
#        40039
#        59537
#        81970
#        101295
#        124150
#        138537
#        155085
#        173532
#        196247
#        220167
#
# Disc length: 3174 seconds
#
# Revision: 2
# Processed by: cddbd v1.4PL0 Copyright (c) Steve Scherf et al.
# Submitted via: ExactAudioCopy v0.95a1
#
DISCID=a00c640c
DTITLE=The Amazing Rhythm Aces - Out Of the Blue
DYEAR=1900
DGENRE=Country
TTITLE0=Out Of The Blue
TTITLE1=Love's On The Way
TTITLE2=Waitin' On Sundown
TTITLE3=Cold, Cold Rain
TTITLE4=Oh, Lucky Me
TTITLE5=The Blue Room
TTITLE6=This Time Ain't Gonna Be No Next Time
TTITLE7=Out Of The Storm
TTITLE8=I Feel Forever
TTITLE9=One Love
TTITLE10=Your Love Is Working In My Life
TTITLE11=Get Down
EXTD=
EXTT0=
EXTT1=
EXTT2=
EXTT3=
EXTT4=
EXTT5=
EXTT6=
EXTT7=
EXTT8=
EXTT9=
EXTT10=
EXTT11=
PLAYORDER=
